# MagicaVoxel @ Ephtracy

# group
o 

# material
mtllib PlayerBody.mtl
usemtl palette

# normals
vn -1 0 0
vn 1 0 0
vn 0 0 1
vn 0 0 -1
vn 0 -1 0
vn 0 1 0

# texcoords
vt 0.849609 0.5
vt 0.994141 0.5

# verts
v -0.4 0.1 0.5
v -0.4 0.1 -0.5
v -0.4 0.2 0.4
v -0.4 0.2 0.3
v -0.4 0.3 0.5
v -0.4 0.3 0.4
v -0.4 0.3 0.3
v -0.4 0.3 -0.2
v -0.4 0.4 -0.2
v -0.4 0.4 -0.4
v -0.4 0.5 -0.4
v -0.4 0.5 -0.5
v -0.3 0 0.4
v -0.3 0 -0.4
v -0.3 0.1 0.4
v -0.3 0.1 -0.4
v 0.2 0 0.4
v 0.2 0 -0.4
v 0.2 0.1 0.4
v 0.2 0.1 -0.4
v 0.3 0.2 0.3
v 0.3 0.2 -0.4
v 0.3 0.3 0.3
v 0.3 0.3 -0.2
v 0.3 0.4 -0.2
v 0.3 0.4 -0.4
v -0.3 0.2 0.3
v -0.3 0.2 -0.4
v -0.3 0.3 0.3
v -0.3 0.3 -0.2
v -0.3 0.4 -0.2
v -0.3 0.4 -0.4
v -0.2 0 0.4
v -0.2 0 -0.4
v -0.2 0.1 0.4
v -0.2 0.1 -0.4
v 0.3 0 0.4
v 0.3 0 -0.4
v 0.3 0.1 0.4
v 0.3 0.1 -0.4
v 0.4 0.1 0.5
v 0.4 0.1 -0.5
v 0.4 0.2 0.4
v 0.4 0.2 0.3
v 0.4 0.3 0.5
v 0.4 0.3 0.4
v 0.4 0.3 0.3
v 0.4 0.3 -0.2
v 0.4 0.4 -0.2
v 0.4 0.4 -0.4
v 0.4 0.5 -0.4
v 0.4 0.5 -0.5
v -0.4 0.1 0.5
v -0.4 0.3 0.5
v 0.4 0.1 0.5
v 0.4 0.3 0.5
v -0.3 0 0.4
v -0.3 0.1 0.4
v -0.2 0 0.4
v -0.2 0.1 0.4
v 0.2 0 0.4
v 0.2 0.1 0.4
v 0.3 0 0.4
v 0.3 0.1 0.4
v -0.4 0.2 0.3
v -0.4 0.3 0.3
v -0.3 0.2 0.3
v -0.3 0.3 0.3
v 0.3 0.2 0.3
v 0.3 0.3 0.3
v 0.4 0.2 0.3
v 0.4 0.3 0.3
v -0.4 0.3 -0.2
v -0.4 0.4 -0.2
v -0.3 0.3 -0.2
v -0.3 0.4 -0.2
v 0.3 0.3 -0.2
v 0.3 0.4 -0.2
v 0.4 0.3 -0.2
v 0.4 0.4 -0.2
v -0.4 0.4 -0.4
v -0.4 0.5 -0.4
v -0.3 0.2 -0.4
v -0.3 0.4 -0.4
v 0.3 0.2 -0.4
v 0.3 0.4 -0.4
v 0.4 0.4 -0.4
v 0.4 0.5 -0.4
v -0.4 0.2 0.4
v -0.4 0.3 0.4
v 0.4 0.2 0.4
v 0.4 0.3 0.4
v -0.3 0 -0.4
v -0.3 0.1 -0.4
v -0.2 0 -0.4
v -0.2 0.1 -0.4
v 0.2 0 -0.4
v 0.2 0.1 -0.4
v 0.3 0 -0.4
v 0.3 0.1 -0.4
v -0.4 0.1 -0.5
v -0.4 0.5 -0.5
v 0.4 0.1 -0.5
v 0.4 0.5 -0.5
v -0.3 0 0.4
v -0.2 0 0.4
v 0.2 0 0.4
v 0.3 0 0.4
v -0.3 0 -0.4
v -0.2 0 -0.4
v 0.2 0 -0.4
v 0.3 0 -0.4
v -0.4 0.1 0.5
v 0.4 0.1 0.5
v -0.3 0.1 0.4
v -0.2 0.1 0.4
v 0.2 0.1 0.4
v 0.3 0.1 0.4
v -0.3 0.1 -0.4
v -0.2 0.1 -0.4
v 0.2 0.1 -0.4
v 0.3 0.1 -0.4
v -0.4 0.1 -0.5
v 0.4 0.1 -0.5
v -0.4 0.2 0.4
v 0.4 0.2 0.4
v -0.4 0.2 0.3
v -0.3 0.2 0.3
v 0.3 0.2 0.3
v 0.4 0.2 0.3
v -0.3 0.2 -0.4
v 0.3 0.2 -0.4
v -0.4 0.3 0.5
v 0.4 0.3 0.5
v -0.4 0.3 0.4
v 0.4 0.3 0.4
v -0.4 0.3 0.3
v -0.3 0.3 0.3
v 0.3 0.3 0.3
v 0.4 0.3 0.3
v -0.4 0.3 -0.2
v -0.3 0.3 -0.2
v 0.3 0.3 -0.2
v 0.4 0.3 -0.2
v -0.4 0.4 -0.2
v -0.3 0.4 -0.2
v 0.3 0.4 -0.2
v 0.4 0.4 -0.2
v -0.4 0.4 -0.4
v -0.3 0.4 -0.4
v 0.3 0.4 -0.4
v 0.4 0.4 -0.4
v -0.4 0.5 -0.4
v 0.4 0.5 -0.4
v -0.4 0.5 -0.5
v 0.4 0.5 -0.5

# faces
f 3/1/1 2/1/1 1/1/1
f 4/1/1 2/1/1 3/1/1
f 5/1/1 3/1/1 1/1/1
f 6/1/1 3/1/1 5/1/1
f 7/1/1 2/1/1 4/1/1
f 8/1/1 2/1/1 7/1/1
f 9/1/1 2/1/1 8/1/1
f 10/1/1 2/1/1 9/1/1
f 11/1/1 2/1/1 10/1/1
f 12/1/1 2/1/1 11/1/1
f 15/2/1 14/2/1 13/2/1
f 16/2/1 14/2/1 15/2/1
f 19/2/1 18/2/1 17/2/1
f 20/2/1 18/2/1 19/2/1
f 23/1/1 22/1/1 21/1/1
f 24/1/1 22/1/1 23/1/1
f 25/1/1 22/1/1 24/1/1
f 26/1/1 22/1/1 25/1/1
f 27/1/2 28/1/2 29/1/2
f 29/1/2 28/1/2 30/1/2
f 30/1/2 28/1/2 31/1/2
f 31/1/2 28/1/2 32/1/2
f 33/2/2 34/2/2 35/2/2
f 35/2/2 34/2/2 36/2/2
f 37/2/2 38/2/2 39/2/2
f 39/2/2 38/2/2 40/2/2
f 41/1/2 42/1/2 43/1/2
f 43/1/2 42/1/2 44/1/2
f 41/1/2 43/1/2 45/1/2
f 45/1/2 43/1/2 46/1/2
f 44/1/2 42/1/2 47/1/2
f 47/1/2 42/1/2 48/1/2
f 48/1/2 42/1/2 49/1/2
f 49/1/2 42/1/2 50/1/2
f 50/1/2 42/1/2 51/1/2
f 51/1/2 42/1/2 52/1/2
f 55/1/3 54/1/3 53/1/3
f 56/1/3 54/1/3 55/1/3
f 59/2/3 58/2/3 57/2/3
f 60/2/3 58/2/3 59/2/3
f 63/2/3 62/2/3 61/2/3
f 64/2/3 62/2/3 63/2/3
f 67/1/3 66/1/3 65/1/3
f 68/1/3 66/1/3 67/1/3
f 71/1/3 70/1/3 69/1/3
f 72/1/3 70/1/3 71/1/3
f 75/1/3 74/1/3 73/1/3
f 76/1/3 74/1/3 75/1/3
f 79/1/3 78/1/3 77/1/3
f 80/1/3 78/1/3 79/1/3
f 84/1/3 82/1/3 81/1/3
f 85/1/3 84/1/3 83/1/3
f 86/1/3 82/1/3 84/1/3
f 86/1/3 84/1/3 85/1/3
f 87/1/3 82/1/3 86/1/3
f 88/1/3 82/1/3 87/1/3
f 89/1/4 90/1/4 91/1/4
f 91/1/4 90/1/4 92/1/4
f 93/2/4 94/2/4 95/2/4
f 95/2/4 94/2/4 96/2/4
f 97/2/4 98/2/4 99/2/4
f 99/2/4 98/2/4 100/2/4
f 101/1/4 102/1/4 103/1/4
f 103/1/4 102/1/4 104/1/4
f 109/2/5 106/2/5 105/2/5
f 110/2/5 106/2/5 109/2/5
f 111/2/5 108/2/5 107/2/5
f 112/2/5 108/2/5 111/2/5
f 115/1/5 114/1/5 113/1/5
f 116/1/5 114/1/5 115/1/5
f 117/1/5 114/1/5 116/1/5
f 118/1/5 114/1/5 117/1/5
f 119/1/5 115/1/5 113/1/5
f 120/1/5 117/1/5 116/1/5
f 121/1/5 117/1/5 120/1/5
f 122/1/5 114/1/5 118/1/5
f 123/1/5 121/1/5 120/1/5
f 123/1/5 122/1/5 121/1/5
f 123/1/5 119/1/5 113/1/5
f 123/1/5 120/1/5 119/1/5
f 124/1/5 114/1/5 122/1/5
f 124/1/5 122/1/5 123/1/5
f 125/1/6 126/1/6 127/1/6
f 127/1/6 126/1/6 128/1/6
f 128/1/6 126/1/6 129/1/6
f 129/1/6 126/1/6 130/1/6
f 128/1/6 129/1/6 131/1/6
f 131/1/6 129/1/6 132/1/6
f 133/1/6 134/1/6 135/1/6
f 135/1/6 134/1/6 136/1/6
f 137/1/6 138/1/6 141/1/6
f 141/1/6 138/1/6 142/1/6
f 139/1/6 140/1/6 143/1/6
f 143/1/6 140/1/6 144/1/6
f 145/1/6 146/1/6 149/1/6
f 149/1/6 146/1/6 150/1/6
f 147/1/6 148/1/6 151/1/6
f 151/1/6 148/1/6 152/1/6
f 153/1/6 154/1/6 155/1/6
f 155/1/6 154/1/6 156/1/6
