# MagicaVoxel @ Ephtracy

# group
o 

# material
mtllib Tile_001.mtl
usemtl palette

# normals
vn -1 0 0
vn 1 0 0
vn 0 0 1
vn 0 0 -1
vn 0 -1 0
vn 0 1 0

# texcoords
vt 0.0683594 0.5
vt 0.232422 0.5
vt 0.306641 0.5
vt 0.630859 0.5
vt 0.884766 0.5
vt 0.904297 0.5

# verts
v -0.5 0 0.5
v -0.5 0 -0.5
v -0.5 0.1 0.5
v -0.5 0.1 0.3
v -0.5 0.1 0.2
v -0.5 0.1 0
v -0.5 0.1 -0.1
v -0.5 0.1 -0.5
v -0.5 0.2 0.4
v -0.5 0.2 0.3
v -0.5 0.2 0.2
v -0.5 0.2 0
v -0.5 0.2 -0.1
v -0.5 0.2 -0.3
v -0.5 0.3 0.5
v -0.5 0.3 0.4
v -0.5 0.3 0.3
v -0.5 0.3 -0.1
v -0.5 0.3 -0.3
v -0.5 0.4 0.5
v -0.5 0.4 0.4
v -0.5 0.5 0.4
v -0.5 0.5 0.3
v -0.5 0.5 0
v -0.5 0.5 -0.1
v -0.5 0.5 -0.3
v -0.5 0.5 -0.4
v -0.5 0.6 0.1
v -0.5 0.6 0
v -0.5 0.6 -0.1
v -0.5 0.6 -0.2
v -0.5 0.7 0.5
v -0.5 0.7 0.4
v -0.5 0.7 0.3
v -0.5 0.7 0.1
v -0.5 0.7 -0.2
v -0.5 0.7 -0.3
v -0.5 0.7 -0.4
v -0.5 0.7 -0.5
v -0.5 0.9 0.3
v -0.5 0.9 0.2
v -0.5 1 0.5
v -0.5 1 0.3
v -0.5 1 0.2
v -0.5 1 -0.5
v 0.5 0 0.5
v 0.5 0 -0.5
v 0.5 0.1 0.5
v 0.5 0.1 -0.2
v 0.5 0.1 -0.3
v 0.5 0.1 -0.5
v 0.5 0.2 0.3
v 0.5 0.2 0.1
v 0.5 0.2 -0.2
v 0.5 0.2 -0.3
v 0.5 0.3 0.3
v 0.5 0.3 0.1
v 0.5 0.3 -0.3
v 0.5 0.3 -0.4
v 0.5 0.4 -0.3
v 0.5 0.4 -0.4
v 0.5 0.4 -0.5
v 0.5 0.5 0.4
v 0.5 0.5 0.3
v 0.5 0.5 -0.1
v 0.5 0.5 -0.2
v 0.5 0.5 -0.4
v 0.5 0.5 -0.5
v 0.5 0.6 0.3
v 0.5 0.6 0.2
v 0.5 0.6 0.1
v 0.5 0.6 0
v 0.5 0.6 -0.4
v 0.5 0.6 -0.5
v 0.5 0.7 0.5
v 0.5 0.7 0.4
v 0.5 0.7 0.2
v 0.5 0.7 0.1
v 0.5 0.7 0
v 0.5 0.7 -0.1
v 0.5 0.7 -0.2
v 0.5 0.7 -0.4
v 0.5 0.9 0.2
v 0.5 0.9 0.1
v 0.5 0.9 -0.1
v 0.5 0.9 -0.2
v 0.5 1 0.5
v 0.5 1 0.2
v 0.5 1 0.1
v 0.5 1 -0.1
v 0.5 1 -0.2
v 0.5 1 -0.5
v -0.5 0 0.5
v -0.5 0.1 0.5
v -0.5 0.3 0.5
v -0.5 0.4 0.5
v -0.5 0.7 0.5
v -0.5 1 0.5
v -0.3 0.1 0.5
v -0.3 0.2 0.5
v -0.3 0.3 0.5
v -0.3 0.4 0.5
v -0.3 0.6 0.5
v -0.3 0.7 0.5
v -0.1 0.1 0.5
v -0.1 0.2 0.5
v -0.1 0.4 0.5
v -0.1 0.6 0.5
v 0 0.4 0.5
v 0 0.6 0.5
v 0 0.9 0.5
v 0 1 0.5
v 0.1 0.2 0.5
v 0.1 0.3 0.5
v 0.1 0.6 0.5
v 0.1 0.7 0.5
v 0.1 0.9 0.5
v 0.1 1 0.5
v 0.2 0.1 0.5
v 0.2 0.2 0.5
v 0.2 0.3 0.5
v 0.3 0.5 0.5
v 0.3 0.7 0.5
v 0.4 0.1 0.5
v 0.4 0.2 0.5
v 0.4 0.5 0.5
v 0.4 0.7 0.5
v 0.5 0 0.5
v 0.5 0.1 0.5
v 0.5 0.7 0.5
v 0.5 1 0.5
v -0.5 0 -0.5
v -0.5 0.1 -0.5
v -0.5 0.7 -0.5
v -0.5 1 -0.5
v -0.4 0.1 -0.5
v -0.4 0.2 -0.5
v -0.3 0.2 -0.5
v -0.3 0.4 -0.5
v -0.3 0.5 -0.5
v -0.3 0.7 -0.5
v -0.2 0.2 -0.5
v -0.2 0.4 -0.5
v -0.2 0.5 -0.5
v -0.2 0.7 -0.5
v -0.1 0.1 -0.5
v -0.1 0.2 -0.5
v -0.1 0.3 -0.5
v 0 0.2 -0.5
v 0 0.3 -0.5
v 0 0.6 -0.5
v 0 0.7 -0.5
v 0.1 0.5 -0.5
v 0.1 0.6 -0.5
v 0.2 0.2 -0.5
v 0.2 0.3 -0.5
v 0.2 0.5 -0.5
v 0.2 0.7 -0.5
v 0.4 0.2 -0.5
v 0.4 0.3 -0.5
v 0.4 0.4 -0.5
v 0.4 0.5 -0.5
v 0.4 0.6 -0.5
v 0.4 0.7 -0.5
v 0.5 0 -0.5
v 0.5 0.1 -0.5
v 0.5 0.4 -0.5
v 0.5 0.5 -0.5
v 0.5 0.6 -0.5
v 0.5 1 -0.5
v -0.5 0 0.5
v 0.5 0 0.5
v -0.4 0 0.4
v 0.4 0 0.4
v -0.4 0 -0.4
v 0.4 0 -0.4
v -0.5 0 -0.5
v 0.5 0 -0.5
v -0.5 1 0.5
v 0 1 0.5
v 0.1 1 0.5
v 0.5 1 0.5
v 0 1 0.4
v 0.1 1 0.4
v -0.5 1 0.3
v -0.3 1 0.3
v -0.5 1 0.2
v -0.3 1 0.2
v -0.2 1 0.2
v 0 1 0.2
v 0.4 1 0.2
v 0.5 1 0.2
v -0.2 1 0.1
v 0 1 0.1
v 0.4 1 0.1
v 0.5 1 0.1
v -0.2 1 -0.1
v -0.1 1 -0.1
v 0.3 1 -0.1
v 0.5 1 -0.1
v -0.4 1 -0.2
v -0.2 1 -0.2
v 0.1 1 -0.2
v 0.2 1 -0.2
v 0.3 1 -0.2
v 0.5 1 -0.2
v -0.4 1 -0.3
v -0.1 1 -0.3
v 0.1 1 -0.3
v 0.2 1 -0.3
v -0.5 1 -0.5
v 0.5 1 -0.5

# faces
f 3/2/1 2/2/1 1/2/1
f 4/2/1 2/2/1 3/2/1
f 5/2/1 2/2/1 4/2/1
f 6/2/1 2/2/1 5/2/1
f 7/2/1 2/2/1 6/2/1
f 8/2/1 2/2/1 7/2/1
f 9/1/1 4/1/1 3/1/1
f 10/2/1 5/2/1 4/2/1
f 10/1/1 4/1/1 9/1/1
f 11/1/1 6/1/1 5/1/1
f 11/2/1 5/2/1 10/2/1
f 12/2/1 7/2/1 6/2/1
f 12/1/1 6/1/1 11/1/1
f 13/1/1 8/1/1 7/1/1
f 13/2/1 7/2/1 12/2/1
f 14/1/1 8/1/1 13/1/1
f 15/1/1 9/1/1 3/1/1
f 16/2/1 10/2/1 9/2/1
f 16/1/1 9/1/1 15/1/1
f 17/1/1 11/1/1 10/1/1
f 17/2/1 10/2/1 16/2/1
f 17/1/1 12/1/1 11/1/1
f 17/1/1 13/1/1 12/1/1
f 18/2/1 14/2/1 13/2/1
f 18/1/1 13/1/1 17/1/1
f 19/1/1 8/1/1 14/1/1
f 19/2/1 14/2/1 18/2/1
f 20/2/1 16/2/1 15/2/1
f 21/1/1 18/1/1 17/1/1
f 21/2/1 16/2/1 20/2/1
f 21/1/1 17/1/1 16/1/1
f 21/1/1 19/1/1 18/1/1
f 22/1/1 21/1/1 20/1/1
f 22/1/1 19/1/1 21/1/1
f 23/1/1 19/1/1 22/1/1
f 24/1/1 19/1/1 23/1/1
f 25/1/1 19/1/1 24/1/1
f 26/1/1 8/1/1 19/1/1
f 26/1/1 19/1/1 25/1/1
f 27/1/1 8/1/1 26/1/1
f 28/1/1 24/1/1 23/1/1
f 29/5/1 25/5/1 24/5/1
f 29/1/1 24/1/1 28/1/1
f 30/1/1 26/1/1 25/1/1
f 30/5/1 25/5/1 29/5/1
f 31/1/1 26/1/1 30/1/1
f 32/1/1 22/1/1 20/1/1
f 33/5/1 23/5/1 22/5/1
f 33/1/1 22/1/1 32/1/1
f 34/1/1 28/1/1 23/1/1
f 34/5/1 23/5/1 33/5/1
f 35/5/1 29/5/1 28/5/1
f 35/1/1 28/1/1 34/1/1
f 35/5/1 30/5/1 29/5/1
f 35/5/1 31/5/1 30/5/1
f 36/1/1 26/1/1 31/1/1
f 36/5/1 31/5/1 35/5/1
f 37/5/1 27/5/1 26/5/1
f 37/1/1 26/1/1 36/1/1
f 38/1/1 8/1/1 27/1/1
f 38/5/1 27/5/1 37/5/1
f 39/1/1 8/1/1 38/1/1
f 40/5/1 33/5/1 32/5/1
f 40/5/1 35/5/1 34/5/1
f 40/5/1 39/5/1 38/5/1
f 40/5/1 38/5/1 37/5/1
f 40/5/1 36/5/1 35/5/1
f 40/5/1 34/5/1 33/5/1
f 40/5/1 37/5/1 36/5/1
f 41/5/1 39/5/1 40/5/1
f 42/5/1 40/5/1 32/5/1
f 43/4/1 41/4/1 40/4/1
f 43/5/1 40/5/1 42/5/1
f 44/5/1 39/5/1 41/5/1
f 44/4/1 41/4/1 43/4/1
f 45/5/1 39/5/1 44/5/1
f 46/2/2 47/2/2 48/2/2
f 48/2/2 47/2/2 49/2/2
f 49/2/2 47/2/2 50/2/2
f 50/2/2 47/2/2 51/2/2
f 48/1/2 49/1/2 52/1/2
f 52/1/2 49/1/2 53/1/2
f 49/2/2 50/2/2 54/2/2
f 53/1/2 49/1/2 54/1/2
f 50/1/2 51/1/2 55/1/2
f 54/2/2 50/2/2 55/2/2
f 52/2/2 53/2/2 56/2/2
f 48/1/2 52/1/2 56/1/2
f 53/1/2 54/1/2 57/1/2
f 56/2/2 53/2/2 57/2/2
f 54/1/2 55/1/2 57/1/2
f 55/1/2 51/1/2 58/1/2
f 57/1/2 55/1/2 58/1/2
f 58/1/2 51/1/2 59/1/2
f 56/1/2 57/1/2 60/1/2
f 57/1/2 58/1/2 60/1/2
f 58/2/2 59/2/2 60/2/2
f 59/1/2 51/1/2 61/1/2
f 60/2/2 59/2/2 61/2/2
f 61/1/2 51/1/2 62/1/2
f 56/1/2 60/1/2 63/1/2
f 48/1/2 56/1/2 63/1/2
f 60/1/2 61/1/2 63/1/2
f 63/1/2 61/1/2 64/1/2
f 64/1/2 61/1/2 65/1/2
f 65/1/2 61/1/2 66/1/2
f 61/2/2 62/2/2 67/2/2
f 66/1/2 61/1/2 67/1/2
f 67/2/2 62/2/2 68/2/2
f 63/5/2 64/5/2 69/5/2
f 64/1/2 65/1/2 69/1/2
f 69/1/2 65/1/2 70/1/2
f 70/1/2 65/1/2 71/1/2
f 71/1/2 65/1/2 72/1/2
f 67/1/2 68/1/2 73/1/2
f 66/1/2 67/1/2 73/1/2
f 73/1/2 68/1/2 74/1/2
f 48/1/2 63/1/2 75/1/2
f 63/5/2 69/5/2 76/5/2
f 75/1/2 63/1/2 76/1/2
f 69/5/2 70/5/2 76/5/2
f 70/1/2 71/1/2 77/1/2
f 76/5/2 70/5/2 77/5/2
f 71/5/2 72/5/2 78/5/2
f 77/1/2 71/1/2 78/1/2
f 72/1/2 65/1/2 79/1/2
f 78/5/2 72/5/2 79/5/2
f 65/5/2 66/5/2 80/5/2
f 79/1/2 65/1/2 80/1/2
f 66/1/2 73/1/2 81/1/2
f 80/5/2 66/5/2 81/5/2
f 73/5/2 74/5/2 82/5/2
f 81/1/2 73/1/2 82/1/2
f 78/5/2 79/5/2 83/5/2
f 77/5/2 78/5/2 83/5/2
f 81/5/2 82/5/2 83/5/2
f 79/5/2 80/5/2 83/5/2
f 75/5/2 76/5/2 83/5/2
f 80/5/2 81/5/2 83/5/2
f 76/5/2 77/5/2 83/5/2
f 83/5/2 82/5/2 84/5/2
f 84/5/2 82/5/2 85/5/2
f 85/5/2 82/5/2 86/5/2
f 75/5/2 83/5/2 87/5/2
f 83/6/2 84/6/2 88/6/2
f 87/5/2 83/5/2 88/5/2
f 84/5/2 85/5/2 89/5/2
f 88/6/2 84/6/2 89/6/2
f 85/6/2 86/6/2 90/6/2
f 89/5/2 85/5/2 90/5/2
f 86/5/2 82/5/2 91/5/2
f 90/6/2 86/6/2 91/6/2
f 82/5/2 74/5/2 92/5/2
f 91/5/2 82/5/2 92/5/2
f 99/2/3 94/2/3 93/2/3
f 99/1/3 95/1/3 94/1/3
f 100/1/3 95/1/3 99/1/3
f 101/2/3 96/2/3 95/2/3
f 101/1/3 95/1/3 100/1/3
f 102/1/3 97/1/3 96/1/3
f 102/2/3 96/2/3 101/2/3
f 103/1/3 97/1/3 102/1/3
f 104/5/3 98/5/3 97/5/3
f 104/1/3 97/1/3 103/1/3
f 105/2/3 100/2/3 99/2/3
f 105/2/3 99/2/3 93/2/3
f 106/1/3 103/1/3 102/1/3
f 106/2/3 100/2/3 105/2/3
f 106/1/3 101/1/3 100/1/3
f 106/1/3 102/1/3 101/1/3
f 107/1/3 103/1/3 106/1/3
f 108/5/3 104/5/3 103/5/3
f 108/1/3 103/1/3 107/1/3
f 109/1/3 107/1/3 106/1/3
f 109/1/3 106/1/3 105/1/3
f 109/5/3 108/5/3 107/5/3
f 110/5/3 104/5/3 108/5/3
f 110/5/3 108/5/3 109/5/3
f 111/5/3 98/5/3 104/5/3
f 111/5/3 104/5/3 110/5/3
f 112/5/3 98/5/3 111/5/3
f 113/1/3 109/1/3 105/1/3
f 113/1/3 110/1/3 109/1/3
f 114/1/3 110/1/3 113/1/3
f 115/5/3 111/5/3 110/5/3
f 115/1/3 110/1/3 114/1/3
f 116/5/3 111/5/3 115/5/3
f 117/6/3 112/6/3 111/6/3
f 117/5/3 111/5/3 116/5/3
f 118/6/3 112/6/3 117/6/3
f 119/2/3 105/2/3 93/2/3
f 119/1/3 113/1/3 105/1/3
f 120/2/3 114/2/3 113/2/3
f 120/1/3 113/1/3 119/1/3
f 121/1/3 116/1/3 115/1/3
f 121/2/3 114/2/3 120/2/3
f 121/1/3 115/1/3 114/1/3
f 122/1/3 121/1/3 120/1/3
f 122/1/3 116/1/3 121/1/3
f 123/5/3 118/5/3 117/5/3
f 123/1/3 116/1/3 122/1/3
f 123/5/3 117/5/3 116/5/3
f 124/2/3 120/2/3 119/2/3
f 124/2/3 119/2/3 93/2/3
f 125/1/3 122/1/3 120/1/3
f 125/2/3 120/2/3 124/2/3
f 126/5/3 123/5/3 122/5/3
f 126/1/3 122/1/3 125/1/3
f 127/5/3 118/5/3 123/5/3
f 127/5/3 123/5/3 126/5/3
f 128/2/3 124/2/3 93/2/3
f 129/1/3 126/1/3 125/1/3
f 129/2/3 124/2/3 128/2/3
f 129/1/3 125/1/3 124/1/3
f 129/1/3 127/1/3 126/1/3
f 130/5/3 118/5/3 127/5/3
f 130/1/3 127/1/3 129/1/3
f 131/5/3 118/5/3 130/5/3
f 132/2/4 133/2/4 136/2/4
f 133/1/4 134/1/4 136/1/4
f 136/1/4 134/1/4 137/1/4
f 136/2/4 137/2/4 138/2/4
f 137/1/4 134/1/4 138/1/4
f 138/1/4 134/1/4 139/1/4
f 139/1/4 134/1/4 140/1/4
f 134/5/4 135/5/4 141/5/4
f 140/1/4 134/1/4 141/1/4
f 136/2/4 138/2/4 142/2/4
f 138/2/4 139/2/4 142/2/4
f 139/1/4 140/1/4 143/1/4
f 142/2/4 139/2/4 143/2/4
f 140/5/4 141/5/4 144/5/4
f 143/1/4 140/1/4 144/1/4
f 141/5/4 135/5/4 145/5/4
f 144/5/4 141/5/4 145/5/4
f 136/2/4 142/2/4 146/2/4
f 132/2/4 136/2/4 146/2/4
f 144/1/4 145/1/4 147/1/4
f 146/2/4 142/2/4 147/2/4
f 143/1/4 144/1/4 147/1/4
f 142/1/4 143/1/4 147/1/4
f 147/1/4 145/1/4 148/1/4
f 146/1/4 147/1/4 149/1/4
f 147/2/4 148/2/4 149/2/4
f 148/1/4 145/1/4 150/1/4
f 149/2/4 148/2/4 150/2/4
f 150/1/4 145/1/4 151/1/4
f 145/5/4 135/5/4 152/5/4
f 151/1/4 145/1/4 152/1/4
f 150/1/4 151/1/4 153/1/4
f 149/1/4 150/1/4 153/1/4
f 151/5/4 152/5/4 154/5/4
f 153/1/4 151/1/4 154/1/4
f 146/1/4 149/1/4 155/1/4
f 149/1/4 153/1/4 155/1/4
f 155/1/4 153/1/4 156/1/4
f 153/5/4 154/5/4 157/5/4
f 156/1/4 153/1/4 157/1/4
f 152/5/4 135/5/4 158/5/4
f 157/5/4 154/5/4 158/5/4
f 154/5/4 152/5/4 158/5/4
f 146/1/4 155/1/4 159/1/4
f 155/2/4 156/2/4 159/2/4
f 156/1/4 157/1/4 160/1/4
f 159/2/4 156/2/4 160/2/4
f 157/1/4 158/1/4 160/1/4
f 160/1/4 158/1/4 161/1/4
f 161/1/4 158/1/4 162/1/4
f 162/1/4 158/1/4 163/1/4
f 158/5/4 135/5/4 164/5/4
f 163/1/4 158/1/4 164/1/4
f 132/2/4 146/2/4 165/2/4
f 146/1/4 159/1/4 166/1/4
f 165/2/4 146/2/4 166/2/4
f 159/1/4 160/1/4 166/1/4
f 160/1/4 161/1/4 166/1/4
f 161/2/4 162/2/4 167/2/4
f 166/1/4 161/1/4 167/1/4
f 162/1/4 163/1/4 168/1/4
f 167/2/4 162/2/4 168/2/4
f 163/5/4 164/5/4 169/5/4
f 168/1/4 163/1/4 169/1/4
f 164/5/4 135/5/4 170/5/4
f 169/5/4 164/5/4 170/5/4
f 173/2/5 172/2/5 171/2/5
f 174/2/5 172/2/5 173/2/5
f 175/2/5 173/2/5 171/2/5
f 175/3/5 174/3/5 173/3/5
f 176/2/5 172/2/5 174/2/5
f 176/3/5 174/3/5 175/3/5
f 177/2/5 175/2/5 171/2/5
f 177/2/5 176/2/5 175/2/5
f 178/2/5 172/2/5 176/2/5
f 178/2/5 176/2/5 177/2/5
f 179/5/6 180/5/6 183/5/6
f 180/6/6 181/6/6 183/6/6
f 181/5/6 182/5/6 184/5/6
f 183/6/6 181/6/6 184/6/6
f 179/5/6 183/5/6 185/5/6
f 183/5/6 184/5/6 185/5/6
f 185/5/6 184/5/6 186/5/6
f 185/4/6 186/4/6 187/4/6
f 186/5/6 184/5/6 188/5/6
f 187/4/6 186/4/6 188/4/6
f 188/5/6 184/5/6 189/5/6
f 189/5/6 184/5/6 190/5/6
f 184/5/6 182/5/6 191/5/6
f 190/5/6 184/5/6 191/5/6
f 191/5/6 182/5/6 192/5/6
f 189/4/6 190/4/6 193/4/6
f 187/5/6 188/5/6 193/5/6
f 188/5/6 189/5/6 193/5/6
f 190/5/6 191/5/6 194/5/6
f 193/4/6 190/4/6 194/4/6
f 191/6/6 192/6/6 195/6/6
f 194/5/6 191/5/6 195/5/6
f 195/6/6 192/6/6 196/6/6
f 193/5/6 194/5/6 197/5/6
f 187/5/6 193/5/6 197/5/6
f 195/5/6 196/5/6 197/5/6
f 194/5/6 195/5/6 197/5/6
f 197/5/6 196/5/6 198/5/6
f 198/5/6 196/5/6 199/5/6
f 199/5/6 196/5/6 200/5/6
f 187/5/6 197/5/6 201/5/6
f 197/4/6 198/4/6 202/4/6
f 201/5/6 197/5/6 202/5/6
f 198/5/6 199/5/6 203/5/6
f 203/5/6 199/5/6 204/5/6
f 199/6/6 200/6/6 205/6/6
f 204/5/6 199/5/6 205/5/6
f 205/6/6 200/6/6 206/6/6
f 187/5/6 201/5/6 207/5/6
f 201/4/6 202/4/6 207/4/6
f 202/4/6 198/4/6 208/4/6
f 207/4/6 202/4/6 208/4/6
f 198/5/6 203/5/6 208/5/6
f 203/4/6 204/4/6 209/4/6
f 208/5/6 203/5/6 209/5/6
f 205/5/6 206/5/6 210/5/6
f 209/4/6 204/4/6 210/4/6
f 204/5/6 205/5/6 210/5/6
f 187/5/6 207/5/6 211/5/6
f 207/5/6 208/5/6 211/5/6
f 209/5/6 210/5/6 211/5/6
f 208/5/6 209/5/6 211/5/6
f 210/5/6 206/5/6 212/5/6
f 211/5/6 210/5/6 212/5/6
